<?xml version="1.0" encoding="UTF-8"?>
<svg width="122px" height="36px" viewBox="0 0 122 36" version="1.1" xmlns="http://www.w3.org/2000/svg" xmlns:xlink="http://www.w3.org/1999/xlink">
    <!-- Generator: Sketch 48.1 (47250) - http://www.bohemiancoding.com/sketch -->
    <title>algebra-visoko-uciliste-logo-small</title>
    <desc>Created with Sketch.</desc>
    <defs>
        <linearGradient x1="54.3536684%" y1="0%" x2="45.6463316%" y2="100%" id="linearGradient-1">
            <stop stop-color="#C40F61" offset="0%"></stop>
            <stop stop-color="#E27210" offset="100%"></stop>
        </linearGradient>
        <linearGradient x1="100%" y1="1.27829637%" x2="0%" y2="98.7217036%" id="linearGradient-2">
            <stop stop-color="#C40F61" offset="0%"></stop>
            <stop stop-color="#E27210" offset="100%"></stop>
        </linearGradient>
        <linearGradient x1="100%" y1="13.6376337%" x2="0%" y2="86.3623663%" id="linearGradient-3">
            <stop stop-color="#C40F61" offset="0%"></stop>
            <stop stop-color="#E27210" offset="100%"></stop>
        </linearGradient>
    </defs>
    <g id="Page-1" stroke="none" stroke-width="1" fill="none" fill-rule="evenodd">
        <g id="algebra-visoko-uciliste-logo-small" fill-rule="nonzero">
            <g id="Group">
                <g id="Shape">
                    <path d="M24.375,17.406 C21.592,18.696 19.187,19.809 17.331,21.228 C15.014,23 13.898,25.049 13.916,27.494 C13.931,29.515 14.75,31.265 16.283,32.556 C18.516,34.435 22.295,35.386 27.516,35.386 L27.838,35.385 C31.668,35.359 34.863,34.835 34.997,34.812 L38.068,34.234 L32.308,20.176 C31.257,20.768 30.177,21.235 29.153,21.738 L33.105,31.455 C31.907,31.581 29.564,31.858 27.813,31.87 C23.412,31.904 20.122,31.191 18.546,29.866 C17.794,29.23 17.439,28.47 17.431,27.468 C17.41,24.644 20.46,23.094 25.852,20.597 C29.39,18.958 33.382,16.942 37.294,14.039 L36.014,10.919 C31.041,14.452 28.655,15.424 24.375,17.406" fill="url(#linearGradient-2)"></path>
                    <path d="M19.492,0.407 L19.475,0.407 C19.3742981,0.408110017 19.2736194,0.410777003 19.173,0.415 C17.25,0.496 15.986,1.159 15.249,1.729 C13.705,2.924 12.926,4.803 12.3,6.311 L0.894,34.195 L16.723,34.195 C16.3422096,33.9699865 15.9800519,33.7148375 15.64,33.432 C14.7590921,32.7043023 14.0851929,31.7576016 13.686,30.687 L6.118,30.687 L15.49,7.779 L15.54,7.656 C16.007,6.53 16.589,5.128 17.397,4.502 C17.674,4.286 18.307,3.939 19.459,3.914 C20.629,3.937 21.261,4.285 21.54,4.502 C22.349,5.128 22.93,6.53 23.399,7.658 L23.611,8.178 L26.548,15.36 C27.32548,15.0096003 28.095644,14.643189 28.858,14.261 C29.131,14.123 29.436,13.965 29.708,13.818 L26.701,6.469 L26.637,6.312 C26.012,4.803 25.232,2.924 23.688,1.728 C22.952,1.159 21.695,0.495 19.764,0.415 C19.764,0.415 19.598,0.407 19.505,0.407 L19.492,0.407 Z" fill="url(#linearGradient-3)"></path>
                </g>
                <path d="M51.95,8.717 L48.117,8.717 L47.385,10.838 L44.752,10.838 L48.468,0.598 L51.598,0.598 L55.315,10.838 L52.68,10.838 L51.949,8.718 L51.95,8.717 Z M51.13,6.347 L50.033,3.157 L48.936,6.347 L51.13,6.347 Z M64.021,8.468 L64.021,10.838 L57.379,10.838 L57.379,0.598 L59.865,0.598 L59.865,8.468 L64.021,8.468 Z M76.049,5.176 L76.049,10.838 L73.928,10.838 L73.928,9.404 C73.474,10.311 72.318,11.028 70.708,11.028 C67.885,11.028 65.647,8.819 65.647,5.748 C65.647,2.674 67.885,0.408 70.957,0.408 C73.474,0.408 75.391,1.928 75.946,4.079 L73.284,4.079 C72.874,3.259 72.04,2.777 70.958,2.777 C69.261,2.777 68.163,3.977 68.163,5.777 C68.163,7.415 69.07,8.731 70.899,8.731 C72.026,8.731 72.991,8.234 73.401,7.253 L70.358,7.253 L70.358,5.176 L76.048,5.176 L76.049,5.176 Z M81.579,2.967 L81.579,4.488 L85.734,4.488 L85.734,6.86 L81.579,6.86 L81.579,8.47 L86.143,8.47 L86.143,10.84 L79.092,10.84 L79.092,0.596 L86.142,0.596 L86.142,2.966 L81.579,2.967 Z M114.49,0.597 L110.774,10.837 L113.406,10.837 L114.139,8.717 L117.972,8.717 L118.703,10.837 L121.337,10.837 L117.621,0.598 L114.491,0.598 L114.49,0.597 Z M116.055,3.157 L117.151,6.347 L114.958,6.347 L116.055,3.157 Z M97.26,7.84 C97.26,9.77 95.81,10.838 93.763,10.838 L89.14,10.838 L89.14,0.598 L93.763,0.598 C95.548,0.598 96.909,1.475 96.909,3.289 C96.909,4.284 96.484,4.884 95.709,5.293 C96.762,5.674 97.259,6.683 97.259,7.839 L97.26,7.84 Z M93.427,2.967 L91.627,2.967 L91.627,4.503 L93.529,4.503 C94.085,4.503 94.392,4.269 94.392,3.728 C94.392,3.099 94.026,2.968 93.427,2.968 L93.427,2.967 Z M94.743,7.619 C94.743,7.049 94.539,6.771 93.705,6.771 L91.627,6.771 L91.627,8.468 L93.705,8.468 C94.539,8.468 94.743,8.146 94.743,7.619 Z M103.518,7.283 L102.743,7.283 L102.743,10.838 L100.255,10.838 L100.255,0.597 L104.82,0.597 C106.985,0.597 108.331,1.885 108.331,4.02 C108.331,5.659 107.541,6.639 106.283,7.049 L108.975,10.838 L105.932,10.838 L103.518,7.283 Z M104.542,2.967 L102.743,2.967 L102.743,5.103 L104.542,5.103 C105.405,5.103 105.815,4.752 105.815,4.05 C105.815,3.333 105.376,2.967 104.542,2.967 Z" id="Shape" fill="#FFFFFF"></path>
                <path d="M49.88,18.12 L47.916,24.338 L46.014,24.338 L44.07,18.12 L45.67,18.12 L46.975,22.508 L48.281,18.12 L49.88,18.12 Z M51.616,24.338 L53.126,24.338 L53.126,18.119 L51.616,18.119 L51.616,24.338 Z M60.093,22.455 C60.093,23.974 58.689,24.454 57.695,24.454 C55.793,24.454 55.073,23.343 54.949,22.286 L56.479,22.286 C56.619,22.801 56.895,23.041 57.685,23.041 C58.299,23.041 58.575,22.846 58.575,22.517 C58.575,22.153 58.201,22.126 57.162,21.904 C56.149,21.691 55.109,21.318 55.109,20.03 C55.109,18.66 56.327,18.004 57.509,18.004 C59.267,18.004 59.933,18.99 60.04,20.064 L58.511,20.064 C58.423,19.701 58.218,19.416 57.508,19.416 C56.833,19.416 56.629,19.692 56.629,19.958 C56.629,20.251 56.913,20.287 57.525,20.42 C59.267,20.794 60.093,21.185 60.093,22.455 Z M68.155,21.228 C68.155,23.058 66.743,24.453 64.903,24.453 C63.065,24.453 61.652,23.058 61.652,21.228 C61.652,19.398 63.065,18.003 64.902,18.003 C66.742,18.003 68.155,19.398 68.155,21.228 Z M63.18,21.228 C63.18,22.268 63.909,23.014 64.903,23.014 C65.898,23.014 66.627,22.267 66.627,21.228 C66.627,20.189 65.897,19.442 64.903,19.442 C63.909,19.442 63.18,20.189 63.18,21.228 Z M73.614,24.338 L71.534,21.522 L71.534,24.338 L70.024,24.338 L70.024,18.12 L71.534,18.12 L71.534,20.768 L73.481,18.12 L75.338,18.12 L73.098,21.123 L75.498,24.339 L73.614,24.338 Z M83.47,21.228 C83.47,23.058 82.058,24.453 80.218,24.453 C78.38,24.453 76.967,23.058 76.967,21.228 C76.967,19.398 78.38,18.003 80.217,18.003 C82.057,18.003 83.47,19.398 83.47,21.228 Z M78.495,21.228 C78.495,22.268 79.223,23.014 80.218,23.014 C81.213,23.014 81.942,22.267 81.942,21.228 C81.942,20.189 81.212,19.442 80.218,19.442 C79.223,19.442 78.495,20.189 78.495,21.228 Z M49.71,28.786 L49.7,32.464 C49.7,34.232 48.582,35.12 47.09,35.12 C45.597,35.12 44.478,34.232 44.478,32.464 L44.468,28.786 L46.006,28.786 L46.006,32.375 C46.006,33.352 46.441,33.681 47.09,33.681 C47.739,33.681 48.174,33.351 48.174,32.375 L48.174,28.785 L49.711,28.785 L49.71,28.786 Z M51.581,31.895 C51.581,30.065 52.94,28.67 54.806,28.67 C56.334,28.67 57.498,29.63 57.835,30.98 L56.218,30.98 C55.969,30.438 55.463,30.11 54.806,30.11 C53.775,30.11 53.109,30.856 53.109,31.895 C53.109,32.935 53.775,33.681 54.806,33.681 C55.463,33.681 55.969,33.352 56.218,32.811 L57.835,32.811 C57.498,34.161 56.334,35.121 54.806,35.121 C52.94,35.121 51.581,33.725 51.581,31.895 Z M54.664,28.128 L53.233,26.698 L54.024,25.908 L54.664,26.635 L55.303,25.907 L56.094,26.698 L54.664,28.128 Z M59.66,35.005 L61.17,35.005 L61.17,28.786 L59.66,28.786 L59.66,35.005 Z M67.338,33.565 L67.338,35.005 L63.304,35.005 L63.304,28.786 L64.814,28.786 L64.814,33.566 L67.338,33.565 Z M69.073,35.005 L70.583,35.005 L70.583,28.786 L69.073,28.786 L69.073,35.005 Z M77.55,33.121 C77.55,34.641 76.147,35.121 75.153,35.121 C73.251,35.121 72.531,34.009 72.407,32.952 L73.936,32.952 C74.076,33.467 74.353,33.707 75.143,33.707 C75.757,33.707 76.032,33.512 76.032,33.183 C76.032,32.819 75.659,32.793 74.62,32.57 C73.606,32.357 72.567,31.984 72.567,30.696 C72.567,29.327 73.784,28.67 74.966,28.67 C76.725,28.67 77.391,29.656 77.496,30.731 L75.97,30.731 C75.882,30.367 75.677,30.082 74.967,30.082 C74.292,30.082 74.087,30.358 74.087,30.624 C74.087,30.917 74.371,30.954 74.984,31.086 C76.726,31.46 77.552,31.851 77.552,33.121 L77.55,33.121 Z M74.983,28.128 L73.553,26.698 L74.343,25.908 L74.983,26.635 L75.623,25.907 L76.413,26.698 L74.983,28.128 Z M83.87,30.225 L82.174,30.225 L82.174,35.005 L80.663,35.005 L80.663,30.225 L78.976,30.225 L78.976,28.785 L83.871,28.785 L83.87,30.225 Z M87.116,30.225 L87.116,31.149 L89.639,31.149 L89.639,32.588 L87.116,32.588 L87.116,33.565 L89.888,33.565 L89.888,35.005 L85.606,35.005 L85.606,28.785 L89.888,28.785 L89.888,30.225 L87.116,30.225 Z" id="Shape" fill="#E1700E"></path>
            </g>
        </g>
    </g>
</svg>